<svg xmlns="http://www.w3.org/2000/svg" width="32" height="32" viewBox="0 0 32 32">
  <circle cx="16" cy="16" r="16" fill="#ff8800" />
  <circle cx="16" cy="16" r="12" fill="#ffaa00" />
  <circle cx="16" cy="16" r="8" fill="#ffcc00" />
  <circle cx="16" cy="16" r="4" fill="#ffffff" />
  
  <!-- Explosion rays -->
  <polygon points="16,0 19,8 16,16 13,8" fill="#ffcc00" />
  <polygon points="32,16 24,19 16,16 24,13" fill="#ffcc00" />
  <polygon points="16,32 13,24 16,16 19,24" fill="#ffcc00" />
  <polygon points="0,16 8,13 16,16 8,19" fill="#ffcc00" />
  
  <!-- Diagonal rays -->
  <polygon points="4,4 10,10 16,16 10,10" fill="#ffcc00" />
  <polygon points="28,4 22,10 16,16 22,10" fill="#ffcc00" />
  <polygon points="28,28 22,22 16,16 22,22" fill="#ffcc00" />
  <polygon points="4,28 10,22 16,16 10,22" fill="#ffcc00" />
</svg>
