<svg xmlns="http://www.w3.org/2000/svg" width="16" height="16" viewBox="0 0 16 16">
  <rect x="0" y="0" width="16" height="16" fill="#0000aa" opacity="0.7" />
  
  <!-- Wave lines -->
  <path d="M0,4 Q2,2 4,4 Q6,6 8,4 Q10,2 12,4 Q14,6 16,4" 
        stroke="#5555ff" fill="none" stroke-width="1" opacity="0.7" />
  
  <path d="M0,8 Q2,6 4,8 Q6,10 8,8 Q10,6 12,8 Q14,10 16,8" 
        stroke="#5555ff" fill="none" stroke-width="1" opacity="0.7" />
  
  <path d="M0,12 Q2,10 4,12 Q6,14 8,12 Q10,10 12,12 Q14,14 16,12" 
        stroke="#5555ff" fill="none" stroke-width="1" opacity="0.7" />
</svg>
